<?xml version="1.0" standalone="no"?>
<!DOCTYPE svg PUBLIC "-//W3C//DTD SVG 20010904//EN"
 "http://www.w3.org/TR/2001/REC-SVG-20010904/DTD/svg10.dtd">
<svg version="1.0" xmlns="http://www.w3.org/2000/svg"
 width="16.000000pt" height="16.000000pt" viewBox="0 0 16.000000 16.000000"
 preserveAspectRatio="xMidYMid meet">
<metadata>
Created by potrace 1.11, written by Peter Selinger 2001-2013
</metadata>
<g transform="translate(0.000000,16.000000) scale(0.005161,-0.005161)"
fill="#000000" stroke="none">
<path d="M1455 2256 c-73 -23 -115 -54 -154 -111 -47 -67 -61 -125 -57 -233 3
-107 23 -174 76 -252 l30 -45 -22 -15 c-88 -58 -166 -162 -193 -255 -21 -69
-23 -209 -5 -275 31 -116 105 -205 199 -240 80 -30 195 -29 263 3 58 27 129
91 153 137 9 17 17 30 19 30 2 0 27 -35 56 -78 30 -42 55 -79 57 -81 4 -6 193
-4 199 2 3 2 -44 75 -104 162 l-109 157 53 122 c30 66 58 130 63 141 5 11 23
51 40 89 17 37 31 70 31 72 0 2 -39 4 -88 4 l-87 0 -54 -140 c-30 -77 -57
-142 -60 -144 -5 -3 -155 208 -183 259 -5 9 14 29 60 62 79 58 132 119 164
189 29 63 34 196 11 267 -20 61 -80 129 -138 157 -55 27 -163 35 -220 16z
m158 -153 c37 -34 51 -75 51 -153 1 -86 -12 -117 -77 -187 -36 -40 -94 -80
-102 -71 -1 2 -17 32 -36 68 -27 54 -33 79 -37 150 -4 74 -1 92 19 134 28 61
70 88 123 81 22 -3 48 -13 59 -22z m-118 -706 c33 -50 62 -94 65 -97 11 -11
99 -146 105 -160 3 -9 -11 -41 -33 -76 -47 -72 -104 -105 -171 -99 -116 12
-180 108 -176 265 1 57 8 89 25 126 22 45 100 134 117 134 5 0 35 -42 68 -93z"/>
<path d="M2492 2258 c-181 -31 -301 -186 -300 -389 1 -188 70 -283 293 -404
142 -77 204 -152 209 -252 4 -97 -32 -177 -98 -214 -88 -50 -226 -22 -317 65
l-36 34 -52 -66 -53 -67 46 -42 c95 -85 218 -124 353 -112 212 21 342 185 331
419 -7 158 -82 264 -254 359 -167 92 -219 141 -241 221 -15 56 -5 139 24 192
63 116 237 131 340 30 l31 -29 51 61 c28 33 51 63 51 66 0 12 -42 51 -79 75
-74 46 -205 69 -299 53z"/>
<path d="M251 1536 l0 -696 89 0 89 0 0 142 c0 79 0 213 1 298 l0 155 107 0
c60 -1 128 3 152 7 102 18 195 92 243 195 33 70 49 199 36 291 -18 119 -92
221 -198 271 -53 25 -62 26 -287 29 l-232 4 0 -696z m434 522 c68 -36 104
-103 109 -202 6 -116 -33 -205 -108 -247 -33 -19 -58 -23 -148 -25 l-108 -2 0
49 c-1 27 -1 105 -1 174 0 69 0 159 1 201 l0 77 113 -5 c75 -3 122 -10 142
-20z"/>
</g>
</svg>
