<svg version="1" xmlns="http://www.w3.org/2000/svg" width="413.333" height="413.333" viewBox="0 0 310.000000 310.000000"><path d="M57.9 136.2c0 28.2-.3 53.3-.5 55.8-.8 6.6-3.7 12.3-7.8 15.5-5.2 3.9-14.6 4.6-23.5 1.6-3.5-1.2-6.4-2.1-6.6-1.9-.1.2-.7 1.8-1.3 3.6-1 2.9-.9 3.4 1.1 4.7 3.8 2.5 12.9 4.3 20.3 4.1 12.5-.4 20.1-6 24.7-18.3 2.1-5.7 2.2-7.1 2.5-61.1l.3-55.2H58l-.1 51.2zM128.7 95.2c-1.9 5.7-8.1 23.6-13.7 39.8-5.6 16.2-10.6 30.6-11 32-.4 1.4-4.6 13.5-9.3 27l-8.5 24.6 4.6-.1h4.5l6.6-19.5 6.6-19.5 28-.2 28.1-.2 6.3 19.2c3.5 10.6 6.5 19.4 6.7 19.6 1 1.1 7.5 1 7.9-.1.3-.8-2.9-11.2-7.1-23.3-13.6-39.4-18.1-52.6-28-81.3L140.7 85h-8.5l-3.5 10.2zm14.3 21.3c1.2 3.8 5.7 17.3 10.1 29.9 4.3 12.6 7.9 23.3 7.9 23.7 0 .5-11.2.9-25 .9h-25l1.1-2.8c2.2-5.6 15.9-46.2 20-59.2l4.2-13.5 2.2 7c1.3 3.8 3.3 10.1 4.5 14zM206.6 151.2c.1 36.5.2 66.6.3 66.9 0 .3 1.9.5 4.1.5h4l.1-7.1c.1-3.8.1-16.1 0-27.2 0-14.9.3-20.4 1.2-21 .7-.4 7.9-.8 16.1-.8 14.7 0 14.9 0 16.5 2.4.9 1.4 7.9 14 15.6 28l14 25.6 4.8.1c2.6.1 4.7-.1 4.7-.5 0-.3-7-13.2-15.5-28.6l-15.4-27.9 4.3-1.1c9.3-2.4 18.9-10.4 22.7-18.9 2.3-5.3 3.7-14 3.3-21.2-.9-15.7-8.7-27.2-22.4-33-4-1.6-7.7-1.9-31.5-2.2l-27-.3.1 66.3zm51.3-56.8c12.5 2.5 20.3 12.9 20.6 27.6.3 11.6-3.2 20-11 26.2-5.5 4.3-10.1 5.1-31.6 5.6l-20.7.4v-29.9c0-16.4.2-30 .3-30.3.5-.8 38.4-.4 42.4.4z"/></svg>